<?xml version="1.0" encoding="UTF-8"?>
<svg id="Camada_2" data-name="Camada 2" xmlns="http://www.w3.org/2000/svg" viewBox="0 0 385.26 187.76">
  <defs>
    <style>
      .cls-1 {
        fill: #fdfdfb;
      }

      .cls-2 {
        fill: #fff;
      }

      .cls-3 {
        fill: #eae4e4;
      }
    </style>
  </defs>
  <g id="Camada_2-2" data-name="Camada 2">
    <path class="cls-3" d="M207.4,163.48c.37-.63.39-1.53.04-2.32l-7.23-17.77c-.33-.81-1.07-1.36-1.94-1.37h-10.8c-.86,0-1.68.45-2.03,1.25l-7.56,17.79c-.26.66-.25,1.58.11,2.2,1.46,2.47,4.81,8.8,8.83,15.54,7.1,11.93,4.58,11.93,11.37.1l9.21-15.42Z"/>
    <path class="cls-2" d="M179.33,138.95c-1.29-3.88-2.89-7.69-4.7-11.4-3.66-7.4-8.26-14.34-13.66-20.65-11.08-12.33-25.56-21.76-41.8-26.99l-12.42-3.32c-4.33-.98-8.66-1.85-12.97-2.97-8.62-2.08-17.2-4.5-25.57-7.6-8.34-3.11-16.58-6.93-23.59-12.56-7.12-5.52-12.26-12.97-16.6-20.58,4.86,7.31,10.47,14.28,17.71,19.08,7.14,4.95,15.33,8.07,23.66,10.53,8.35,2.44,16.9,4.23,25.53,5.67,4.29.8,8.65,1.36,12.97,2.03l13.33,2.56c17.67,4.33,34.46,13.49,47.86,26.48,6.55,6.63,12.3,14.08,17.02,22.17,2.36,4.05,6.48,12.92,6.53,13.04-12.03-44.31-38.25-104.93-86.67-108.77l.32,23.84-2.6-3.9c-8.9-13.39-23.1-22.28-39-24.65C36.21,16.71,19.23,11.04,9.16,1.51,5.51-1.94-.46.94.03,5.92c3.33,33.7,18.02,96.81,81.52,93.19,53.94-3.06,82.72,19.9,98.74,42.76-.3-.97-.6-1.95-.96-2.92h0Z"/>
    <path class="cls-2" d="M205.92,138.95c1.29-3.88,2.89-7.69,4.7-11.4,3.66-7.4,8.26-14.34,13.66-20.65,11.08-12.33,25.55-21.76,41.79-26.99l12.42-3.32c4.33-.98,8.66-1.85,12.97-2.97,8.62-2.08,17.2-4.5,25.57-7.6,8.34-3.11,16.58-6.93,23.59-12.56,7.12-5.52,12.26-12.97,16.6-20.58-4.86,7.31-10.47,14.28-17.71,19.08-7.14,4.95-15.33,8.07-23.66,10.53-8.34,2.44-16.9,4.23-25.52,5.67-4.29.8-8.65,1.36-12.96,2.03l-13.33,2.56c-17.68,4.33-34.46,13.49-47.86,26.48-6.55,6.63-12.3,14.08-17.02,22.17-2.36,4.05-6.47,12.92-6.53,13.04,12.03-44.31,38.25-104.93,86.67-108.77l-.32,23.84,2.6-3.9c8.9-13.39,23.1-22.28,39-24.65,28.47-4.25,45.45-9.92,55.52-19.45,3.64-3.45,9.62-.57,9.13,4.41-3.33,33.7-18.03,96.81-81.53,93.19-53.94-3.06-82.72,19.9-98.74,42.76.3-.97.6-1.95.96-2.92h0Z"/>
    <path class="cls-3" d="M192.63,127.11c-5.03-35.86-24.98-113.37-86.67-101.44,60.33,4.76,83.19,97.62,86.67,108.77v-.07.07c3.48-11.15,26.34-104.02,86.67-108.77-61.69-11.93-81.64,65.58-86.67,101.44h0Z"/>
    <path class="cls-2" d="M257,116.76c-6.09-.97-13.06.63-17.37,2.91-2.87,1.52-5.34,3.48-7.43,5.73.96-.73,1.97-1.4,3.07-1.99,10.95-5.79,24.52-1.6,30.31,9.35,5.79,10.95,1.6,24.52-9.35,30.31-10.31,5.45-22.92,2.06-29.2-7.49.29.66.57,1.32.92,1.97,7.24,13.69,24.2,18.92,37.89,11.69,12.32-6.51,17.76-20.89,13.46-33.69-.45-2.17-6.86-16.86-22.29-18.8h-.01Z"/>
    <circle class="cls-3" cx="246.66" cy="143.73" r="18.26" transform="translate(65.27 364.18) rotate(-80.78)"/>
    <path class="cls-2" d="M249.35,130.77c1.66-1.89,4.26-2.64,6.67-1.94,2.41.7,4.2,2.74,4.58,5.22.38,2.48-.7,4.96-2.79,6.36-2.7,1.81-6.32,1.34-8.47-1.1-2.14-2.44-2.14-6.1,0-8.54h.01Z"/>
    <circle class="cls-2" cx="238.06" cy="153.39" r="3.96"/>
    <circle class="cls-3" cx="140.08" cy="143.73" r="18.26"/>
    <path class="cls-1" d="M137.4,139.31c-2.14,2.44-5.77,2.92-8.47,1.1-2.08-1.4-3.17-3.88-2.79-6.36s2.17-4.52,4.58-5.22,5.01.05,6.67,1.94c2.15,2.44,2.15,6.1,0,8.54h.01Z"/>
    <circle class="cls-2" cx="148.69" cy="153.39" r="3.96"/>
    <path class="cls-2" d="M129.19,116.85c6.09-.97,13.06.63,17.37,2.91,2.87,1.52,5.34,3.48,7.43,5.73-.96-.73-1.97-1.4-3.07-1.99-10.95-5.79-24.52-1.6-30.31,9.35-5.79,10.95-1.6,24.52,9.35,30.31,10.31,5.45,22.92,2.06,29.2-7.49-.29.66-.57,1.32-.92,1.97-7.24,13.69-24.2,18.92-37.89,11.69-12.32-6.51-17.76-20.89-13.46-33.69.45-2.17,6.86-16.86,22.29-18.8h.01Z"/>
  </g>
</svg>